<svg xmlns="http://www.w3.org/2000/svg" viewBox="0 0 87.07 82.29"><defs><style>.cls-1{fill:#fff;}</style></defs><title>Asset 1</title><g id="Layer_2" data-name="Layer 2"><g id="Layer_1-2" data-name="Layer 1"><g id="LWx2gB.tif"><path class="cls-1" d="M0,37.59a10.8,10.8,0,0,1,3.6-5.42C4.72,31.13,5.74,30,6.91,29a6.83,6.83,0,0,1,9,.16c2.62,2.46,5.13,5,7.68,7.58Q27.8,40.9,32,45.08a4,4,0,0,1,.49.79l.33-.21v-1c0-12.55,0-25.1,0-37.65A6.32,6.32,0,0,1,37,.62a8.8,8.8,0,0,1,3-.56C42.33,0,44.71,0,47.09,0a6.92,6.92,0,0,1,6.41,3.57,6,6,0,0,1,.68,2.5c.11,1.86.05,3.74.05,5.61q0,16.49,0,33v1.13c.33-.3.55-.49.76-.69C60.14,40,65.3,34.91,70.41,29.77a7,7,0,0,1,7.59-2,6.72,6.72,0,0,1,2.37,1.43c1.61,1.47,3.18,3,4.64,4.6C87.89,37,87.73,41,84.68,44.1q-5.24,5.28-10.51,10.52Q61.51,67.27,48.87,79.92a7,7,0,0,1-7.68,1.94,8,8,0,0,1-3-1.89q-18-17.89-35.91-35.85A9.39,9.39,0,0,1,0,40Z"/></g></g></g></svg>